<svg width="200" height="200" viewBox="0 0 200 200" fill="none" xmlns="http://www.w3.org/2000/svg">
  <!-- Blue background -->
  <rect width="200" height="200" fill="#1e5a96"/>
  
  <!-- Outer circle -->
  <circle cx="100" cy="100" r="90" fill="none" stroke="white" stroke-width="3"/>
  
  <!-- Inner circle -->
  <circle cx="100" cy="100" r="80" fill="none" stroke="white" stroke-width="2"/>
  
  <!-- Bed icon -->
  <g transform="translate(100, 100)">
    <!-- Bed frame -->
    <rect x="-35" y="-12" width="70" height="40" fill="none" stroke="white" stroke-width="3" stroke-linecap="round" stroke-linejoin="round" rx="3"/>
    
    <!-- Bed pillows -->
    <circle cx="-18" cy="-6" r="9" fill="white"/>
    <circle cx="18" cy="-6" r="9" fill="white"/>
    
    <!-- Bed blanket -->
    <path d="M -28 5 Q -28 16 0 20 Q 28 16 28 5" fill="white" opacity="0.85"/>
  </g>
  
  <!-- Location pin pointer at bottom -->
  <path d="M100 170 L75 145 C60 130 50 115 50 100 C50 70 70 55 100 55 C130 55 150 70 150 100 C150 115 140 130 125 145 L100 170Z" 
        fill="white" stroke="white" stroke-width="2" stroke-linejoin="round"/>
</svg>